<?xml version="1.0" encoding="UTF-8"?>
<!DOCTYPE svg PUBLIC "-//W3C//DTD SVG 1.1//EN" "http://www.w3.org/Graphics/SVG/1.1/DTD/svg11.dtd">
<svg xmlns="http://www.w3.org/2000/svg" version="1.1" width="512px" height="512px" style="shape-rendering:geometricPrecision; text-rendering:geometricPrecision; image-rendering:optimizeQuality; fill-rule:evenodd; clip-rule:evenodd" xmlns:xlink="http://www.w3.org/1999/xlink">
<g><path style="opacity:0.996" fill="#7dd63d" d="M 232.5,-0.5 C 247.833,-0.5 263.167,-0.5 278.5,-0.5C 368.144,10.3879 435.644,54.7213 481,132.5C 497.695,163.971 507.861,197.304 511.5,232.5C 511.5,247.833 511.5,263.167 511.5,278.5C 500.612,368.144 456.279,435.644 378.5,481C 347.029,497.695 313.696,507.861 278.5,511.5C 263.167,511.5 247.833,511.5 232.5,511.5C 142.856,500.612 75.3562,456.279 30,378.5C 13.3053,347.029 3.1386,313.696 -0.5,278.5C -0.5,263.167 -0.5,247.833 -0.5,232.5C 10.3875,142.857 54.7208,75.3573 132.5,30C 163.971,13.3053 197.304,3.1386 232.5,-0.5 Z M 101.5,145.5 C 200.834,145.333 300.167,145.5 399.5,146C 409.327,149.824 414.493,156.991 415,167.5C 415.667,226.167 415.667,284.833 415,343.5C 414.493,354.009 409.327,361.176 399.5,365C 324.5,365.667 249.5,365.667 174.5,365C 165.814,362.313 160.647,356.479 159,347.5C 158.667,305.167 158.333,262.833 158,220.5C 138,200.5 118,180.5 98,160.5C 95.2044,154.452 96.3711,149.452 101.5,145.5 Z M 216.5,218.5 C 250.835,218.333 285.168,218.5 319.5,219C 325.795,221.425 327.962,225.925 326,232.5C 324.457,234.378 322.624,235.878 320.5,237C 285.5,237.667 250.5,237.667 215.5,237C 209.076,233.034 207.909,227.867 212,221.5C 213.652,220.601 215.152,219.601 216.5,218.5 Z M 215.5,273.5 C 263.168,273.333 310.834,273.5 358.5,274C 363.868,277.232 365.368,281.732 363,287.5C 361.363,289.81 359.196,291.31 356.5,292C 310.167,292.667 263.833,292.667 217.5,292C 209.864,289.68 207.697,284.847 211,277.5C 212.397,275.93 213.897,274.596 215.5,273.5 Z"/></g>
<g><path style="opacity:0.99" fill="#7dd63d" d="M 129.5,165.5 C 217.998,164.501 306.665,164.167 395.5,164.5C 395.5,225.167 395.5,285.833 395.5,346.5C 323.166,346.667 250.833,346.5 178.5,346C 177.669,302.238 177.169,258.404 177,214.5C 161.3,197.967 145.466,181.634 129.5,165.5 Z M 216.5,218.5 C 215.152,219.601 213.652,220.601 212,221.5C 207.909,227.867 209.076,233.034 215.5,237C 250.5,237.667 285.5,237.667 320.5,237C 322.624,235.878 324.457,234.378 326,232.5C 327.962,225.925 325.795,221.425 319.5,219C 285.168,218.5 250.835,218.333 216.5,218.5 Z M 215.5,273.5 C 213.897,274.596 212.397,275.93 211,277.5C 207.697,284.847 209.864,289.68 217.5,292C 263.833,292.667 310.167,292.667 356.5,292C 359.196,291.31 361.363,289.81 363,287.5C 365.368,281.732 363.868,277.232 358.5,274C 310.834,273.5 263.168,273.333 215.5,273.5 Z"/></g>
</svg>
