<?xml version="1.0" encoding="UTF-8"?>
<!DOCTYPE svg PUBLIC "-//W3C//DTD SVG 1.1//EN" "http://www.w3.org/Graphics/SVG/1.1/DTD/svg11.dtd">
<svg xmlns="http://www.w3.org/2000/svg" version="1.1" width="512px" height="512px" style="shape-rendering:geometricPrecision; text-rendering:geometricPrecision; image-rendering:optimizeQuality; fill-rule:evenodd; clip-rule:evenodd" xmlns:xlink="http://www.w3.org/1999/xlink">
<g><path style="opacity:1" fill="#53ac3b" d="M 238.5,23.5 C 248.833,23.5 259.167,23.5 269.5,23.5C 271.893,24.21 274.393,24.8767 277,25.5C 277.399,25.2716 277.565,24.9382 277.5,24.5C 286.451,24.8249 295.117,26.1582 303.5,28.5C 306.477,29.7101 309.644,30.7101 313,31.5C 313.765,31.4301 314.265,31.0967 314.5,30.5C 324.53,33.0644 334.196,36.3977 343.5,40.5C 343.062,40.4346 342.728,40.6012 342.5,41C 343.946,42.298 345.279,42.4646 346.5,41.5C 348.75,42.1302 350.75,43.1302 352.5,44.5C 354.1,46.6449 356.767,47.9782 360.5,48.5C 361.492,48.3284 362.158,48.6618 362.5,49.5C 364.677,51.4367 367.51,53.4367 371,55.5C 371.399,55.2716 371.565,54.9382 371.5,54.5C 376.77,56.8032 381.77,59.6365 386.5,63C 392.753,67.6125 398.753,72.4458 404.5,77.5C 405.865,79.8598 407.865,81.5265 410.5,82.5C 412.167,83.5 413.5,84.8333 414.5,86.5C 414.062,86.4346 413.728,86.6012 413.5,87C 414.244,88.0386 415.244,88.5386 416.5,88.5C 419.167,89.8333 421.167,91.8333 422.5,94.5C 422.685,96.1958 423.519,97.5291 425,98.5C 425.399,98.2716 425.565,97.9382 425.5,97.5C 426.5,97.8333 427.167,98.5 427.5,99.5C 428.08,101.749 429.413,103.415 431.5,104.5C 431.369,105.239 431.536,105.906 432,106.5C 432.69,107.738 433.19,107.738 433.5,106.5C 437.592,110.258 440.926,114.591 443.5,119.5C 442.984,120.758 443.65,121.758 445.5,122.5C 446.072,124.255 446.906,125.922 448,127.5C 448.69,128.738 449.19,128.738 449.5,127.5C 451.083,129.663 452.416,131.996 453.5,134.5C 453.554,136.632 454.554,137.965 456.5,138.5C 457.167,139.833 457.833,141.167 458.5,142.5C 458.062,142.435 457.728,142.601 457.5,143C 459.15,146.485 461.15,149.651 463.5,152.5C 467.953,160.413 471.619,168.746 474.5,177.5C 473.957,177.56 473.624,177.893 473.5,178.5C 474.999,183.011 476.665,187.344 478.5,191.5C 479.338,191.842 479.672,192.508 479.5,193.5C 478.957,193.56 478.624,193.893 478.5,194.5C 478.784,196.759 479.784,198.426 481.5,199.5C 482.092,202.127 482.425,204.794 482.5,207.5C 482.215,210.829 482.882,213.829 484.5,216.5C 487.407,236.682 488.24,257.015 487,277.5C 486.099,286.645 484.599,295.645 482.5,304.5C 480.96,306.838 480.294,309.505 480.5,312.5C 480.074,316.427 479.074,320.093 477.5,323.5C 477.565,323.062 477.399,322.728 477,322.5C 476.691,323.766 476.191,324.933 475.5,326C 475.728,326.399 476.062,326.565 476.5,326.5C 473.457,338.575 468.79,349.909 462.5,360.5C 461.032,360.694 460.365,362.028 460.5,364.5C 460.025,366.784 459.025,368.784 457.5,370.5C 455.952,370.821 455.285,371.821 455.5,373.5C 454.331,376.511 452.664,379.178 450.5,381.5C 448.267,382.775 446.6,385.109 445.5,388.5C 443.1,390.296 441.433,392.63 440.5,395.5C 437.996,399.828 434.996,403.828 431.5,407.5C 427.5,409.5 424.5,412.5 422.5,416.5C 406.404,434.211 387.737,448.544 366.5,459.5C 366.565,459.062 366.399,458.728 366,458.5C 364.482,459.163 363.315,460.163 362.5,461.5C 362.5,462.167 362.167,462.5 361.5,462.5C 361.44,461.957 361.107,461.624 360.5,461.5C 356.851,462.804 353.851,464.804 351.5,467.5C 350.292,468.234 348.959,468.567 347.5,468.5C 343.863,469.263 340.53,470.597 337.5,472.5C 337.158,473.338 336.492,473.672 335.5,473.5C 335.565,473.062 335.399,472.728 335,472.5C 333.271,472.974 332.105,473.974 331.5,475.5C 331.167,475.5 330.833,475.5 330.5,475.5C 329.377,474.243 328.711,474.576 328.5,476.5C 292.521,487.774 255.854,490.607 218.5,485C 206.734,483.392 195.401,480.559 184.5,476.5C 183.295,474.862 181.962,474.529 180.5,475.5C 166.562,471.362 153.562,465.362 141.5,457.5C 139.747,455.777 137.747,454.277 135.5,453C 134.563,452.308 133.897,452.475 133.5,453.5C 132.5,453.167 131.833,452.5 131.5,451.5C 129.519,449.697 127.352,448.03 125,446.5C 124.601,446.728 124.435,447.062 124.5,447.5C 121.19,445.518 118.19,443.185 115.5,440.5C 114.415,438.413 112.749,437.08 110.5,436.5C 107.545,434.878 104.878,432.878 102.5,430.5C 102.938,430.565 103.272,430.399 103.5,430C 100.899,426.888 97.8991,424.388 94.5,422.5C 91.1938,419.86 88.1938,416.86 85.5,413.5C 85.9382,413.565 86.2716,413.399 86.5,413C 85.2107,411.198 83.5441,410.031 81.5,409.5C 73.7863,401.082 66.7863,392.082 60.5,382.5C 61.7152,381.221 61.3818,380.221 59.5,379.5C 58.0937,379.027 57.427,378.027 57.5,376.5C 57.1298,373.733 55.7964,371.733 53.5,370.5C 51.9752,368.784 50.9752,366.784 50.5,364.5C 50.7148,362.821 50.0481,361.821 48.5,361.5C 47.8902,360.609 47.5569,359.609 47.5,358.5C 47.416,355.318 46.0827,352.985 43.5,351.5C 40.9469,346.39 38.9469,341.057 37.5,335.5C 37.7406,333.102 37.0739,331.102 35.5,329.5C 34.8333,329.5 34.5,329.167 34.5,328.5C 35.8852,327.053 35.5518,326.053 33.5,325.5C 24.747,296.139 21.4136,266.139 23.5,235.5C 25.5969,234.121 25.9302,232.455 24.5,230.5C 25.3945,220.362 27.0612,210.362 29.5,200.5C 31.0863,198.919 32.0863,196.919 32.5,194.5C 32.3764,193.893 32.0431,193.56 31.5,193.5C 33.2615,186.215 35.5949,179.215 38.5,172.5C 40.6074,169.943 41.9408,166.943 42.5,163.5C 42.7073,160.759 43.7073,158.426 45.5,156.5C 47.873,154.421 49.2064,151.754 49.5,148.5C 49.3284,147.508 49.6618,146.842 50.5,146.5C 51.8366,145.685 52.8366,144.518 53.5,143C 53.2716,142.601 52.9382,142.435 52.5,142.5C 58.6062,130.603 65.9395,119.603 74.5,109.5C 74.4346,109.938 74.6012,110.272 75,110.5C 76.5,109 78,107.5 79.5,106C 79.2716,105.601 78.9382,105.435 78.5,105.5C 78.3284,104.508 78.6618,103.842 79.5,103.5C 79.4346,103.938 79.6012,104.272 80,104.5C 82.8333,101.667 85.6667,98.8333 88.5,96C 88.2716,95.6012 87.9382,95.4346 87.5,95.5C 89.5,92.1667 92.1667,89.5 95.5,87.5C 95.4346,87.9382 95.6012,88.2716 96,88.5C 99.1117,85.8991 101.612,82.8991 103.5,79.5C 107.134,76.016 111.134,73.016 115.5,70.5C 118.37,69.5667 120.704,67.9 122.5,65.5C 123.167,64.1667 124.167,63.1667 125.5,62.5C 127.292,63.4728 128.625,62.8061 129.5,60.5C 135.13,56.3457 141.13,52.679 147.5,49.5C 147.56,50.0431 147.893,50.3764 148.5,50.5C 150.812,49.8065 152.146,48.8065 152.5,47.5C 156.187,44.9899 160.187,42.9899 164.5,41.5C 164.56,42.0431 164.893,42.3764 165.5,42.5C 168.626,41.0692 171.793,39.7358 175,38.5C 176.03,38.1639 176.53,37.4972 176.5,36.5C 178.579,36.0293 180.579,35.3627 182.5,34.5C 182.735,35.0967 183.235,35.4301 184,35.5C 186.72,34.7667 189.22,33.7667 191.5,32.5C 205.017,27.9309 219.017,25.2643 233.5,24.5C 233.435,24.9382 233.601,25.2716 234,25.5C 235.622,24.9011 237.122,24.2344 238.5,23.5 Z"/></g>
<g><path style="opacity:0.353" fill="#a37cb2" d="M 269.5,23.5 C 272.385,23.1936 275.052,23.5269 277.5,24.5C 277.565,24.9382 277.399,25.2716 277,25.5C 274.393,24.8767 271.893,24.21 269.5,23.5 Z"/></g>
<g><path style="opacity:0.996" fill="#c175a5" d="M 238.5,23.5 C 237.122,24.2344 235.622,24.9011 234,25.5C 233.601,25.2716 233.435,24.9382 233.5,24.5C 234.919,23.5489 236.585,23.2155 238.5,23.5 Z"/></g>
<g><path style="opacity:0.024" fill="#959eb1" d="M 303.5,28.5 C 307.262,28.6911 310.929,29.3578 314.5,30.5C 314.265,31.0967 313.765,31.4301 313,31.5C 309.644,30.7101 306.477,29.7101 303.5,28.5 Z"/></g>
<g><path style="opacity:0.98" fill="#cd4a63" d="M 191.5,32.5 C 189.22,33.7667 186.72,34.7667 184,35.5C 183.235,35.4301 182.735,35.0967 182.5,34.5C 185.402,33.4222 188.402,32.7556 191.5,32.5 Z"/></g>
<g><path style="opacity:0.976" fill="#a69789" d="M 176.5,36.5 C 176.53,37.4972 176.03,38.1639 175,38.5C 171.793,39.7358 168.626,41.0692 165.5,42.5C 164.893,42.3764 164.56,42.0431 164.5,41.5C 168.5,39.8333 172.5,38.1667 176.5,36.5 Z"/></g>
<g><path style="opacity:0.533" fill="#cb4374" d="M 343.5,40.5 C 344.609,40.5569 345.609,40.8902 346.5,41.5C 345.279,42.4646 343.946,42.298 342.5,41C 342.728,40.6012 343.062,40.4346 343.5,40.5 Z"/></g>
<g><path style="opacity:0.667" fill="#c84fa9" d="M 352.5,44.5 C 355.485,45.3257 358.151,46.659 360.5,48.5C 356.767,47.9782 354.1,46.6449 352.5,44.5 Z"/></g>
<g><path style="opacity:0.984" fill="#c77b91" d="M 152.5,47.5 C 152.146,48.8065 150.812,49.8065 148.5,50.5C 147.893,50.3764 147.56,50.0431 147.5,49.5C 149.05,48.5592 150.716,47.8925 152.5,47.5 Z"/></g>
<g><path style="opacity:0.267" fill="#c7a6a2" d="M 362.5,49.5 C 365.992,50.4097 368.992,52.0764 371.5,54.5C 371.565,54.9382 371.399,55.2716 371,55.5C 367.51,53.4367 364.677,51.4367 362.5,49.5 Z"/></g>
<g><path style="opacity:0.788" fill="#da5e96" d="M 129.5,60.5 C 128.625,62.8061 127.292,63.4728 125.5,62.5C 126.605,61.3995 127.938,60.7329 129.5,60.5 Z"/></g>
<g><path style="opacity:0.812" fill="#d6576c" d="M 122.5,65.5 C 120.704,67.9 118.37,69.5667 115.5,70.5C 117.296,68.1 119.63,66.4333 122.5,65.5 Z"/></g>
<g><path style="opacity:0.996" fill="#ac94a1" d="M 404.5,77.5 C 407.109,78.4431 409.109,80.1097 410.5,82.5C 407.865,81.5265 405.865,79.8598 404.5,77.5 Z"/></g>
<g><path style="opacity:0.961" fill="#9d7983" d="M 103.5,79.5 C 101.612,82.8991 99.1117,85.8991 96,88.5C 95.6012,88.2716 95.4346,87.9382 95.5,87.5C 97.8333,84.5 100.5,81.8333 103.5,79.5 Z"/></g>
<g><path style="opacity:0.443" fill="#b959c4" d="M 414.5,86.5 C 415.5,86.8333 416.167,87.5 416.5,88.5C 415.244,88.5386 414.244,88.0386 413.5,87C 413.728,86.6012 414.062,86.4346 414.5,86.5 Z"/></g>
<g><path style="opacity:0.992" fill="#c160ad" d="M 422.5,94.5 C 423.833,95.1667 424.833,96.1667 425.5,97.5C 425.565,97.9382 425.399,98.2716 425,98.5C 423.519,97.5291 422.685,96.1958 422.5,94.5 Z"/></g>
<g><path style="opacity:0.91" fill="#af7787" d="M 87.5,95.5 C 87.9382,95.4346 88.2716,95.6012 88.5,96C 85.6667,98.8333 82.8333,101.667 80,104.5C 79.6012,104.272 79.4346,103.938 79.5,103.5C 81.8333,100.5 84.5,97.8333 87.5,95.5 Z"/></g>
<g><path style="opacity:0.835" fill="#b278b1" d="M 427.5,99.5 C 429.587,100.585 430.92,102.251 431.5,104.5C 429.413,103.415 428.08,101.749 427.5,99.5 Z"/></g>
<g><path style="opacity:0.996" fill="#b25892" d="M 431.5,104.5 C 432.5,104.833 433.167,105.5 433.5,106.5C 433.19,107.738 432.69,107.738 432,106.5C 431.536,105.906 431.369,105.239 431.5,104.5 Z"/></g>
<g><path style="opacity:0.831" fill="#869fba" d="M 78.5,105.5 C 78.9382,105.435 79.2716,105.601 79.5,106C 78,107.5 76.5,109 75,110.5C 74.6012,110.272 74.4346,109.938 74.5,109.5C 75.5,107.833 76.8333,106.5 78.5,105.5 Z"/></g>
<g><path style="opacity:1" fill="#fcfdfc" d="M 179.5,119.5 C 196.774,117.86 210.608,123.86 221,137.5C 224.667,144.833 228.333,152.167 232,159.5C 236.331,173.503 234.331,186.503 226,198.5C 221.526,202.794 217.526,207.461 214,212.5C 212.158,215.754 211.325,219.254 211.5,223C 220.09,256.842 238.424,284.175 266.5,305C 272.114,308.209 278.114,309.209 284.5,308C 292.065,304.717 299.732,301.717 307.5,299C 319.729,297.521 330.729,300.521 340.5,308C 349.402,316.232 357.569,325.066 365,334.5C 371.795,349.727 370.795,364.394 362,378.5C 356.802,384.033 351.302,389.2 345.5,394C 336.176,399.331 326.176,401.331 315.5,400C 225.936,362.093 169.103,295.926 145,201.5C 141.145,186.38 139.479,171.047 140,155.5C 142.865,144.604 149.031,136.104 158.5,130C 165.344,125.911 172.344,122.411 179.5,119.5 Z"/></g>
<g><path style="opacity:0.686" fill="#d13b96" d="M 443.5,119.5 C 444.906,119.973 445.573,120.973 445.5,122.5C 443.65,121.758 442.984,120.758 443.5,119.5 Z"/></g>
<g><path style="opacity:0.984" fill="#bf726f" d="M 445.5,122.5 C 447.543,123.579 448.876,125.246 449.5,127.5C 449.19,128.738 448.69,128.738 448,127.5C 446.906,125.922 446.072,124.255 445.5,122.5 Z"/></g>
<g><path style="opacity:1" fill="#53ad3b" d="M 181.5,135.5 C 191.826,134.248 200.326,137.582 207,145.5C 210.939,153.045 214.606,160.712 218,168.5C 219.265,176.708 217.265,184.042 212,190.5C 195.21,204.871 191.21,222.205 200,242.5C 212.716,275.207 233.55,301.374 262.5,321C 273.464,325.569 284.464,325.569 295.5,321C 306.698,312.808 318.032,312.475 329.5,320C 336,326.5 342.5,333 349,339.5C 354.643,348.584 354.977,357.917 350,367.5C 345.833,371.667 341.667,375.833 337.5,380C 330.647,384.576 323.314,385.576 315.5,383C 245.766,351.933 197.266,300.766 170,229.5C 160.961,206.308 156.295,182.308 156,157.5C 157.413,154.339 159.08,151.339 161,148.5C 167.339,143.255 174.173,138.922 181.5,135.5 Z"/></g>
<g><path style="opacity:0.937" fill="#9e80bc" d="M 453.5,134.5 C 454.974,135.436 455.974,136.77 456.5,138.5C 454.554,137.965 453.554,136.632 453.5,134.5 Z"/></g>
<g><path style="opacity:0.957" fill="#cd5286" d="M 52.5,142.5 C 52.9382,142.435 53.2716,142.601 53.5,143C 52.8366,144.518 51.8366,145.685 50.5,146.5C 50.6596,144.847 51.3263,143.514 52.5,142.5 Z"/></g>
<g><path style="opacity:0.949" fill="#be7789" d="M 458.5,142.5 C 460.674,145.515 462.341,148.849 463.5,152.5C 461.15,149.651 459.15,146.485 457.5,143C 457.728,142.601 458.062,142.435 458.5,142.5 Z"/></g>
<g><path style="opacity:0.643" fill="#9f73a4" d="M 49.5,148.5 C 49.2064,151.754 47.873,154.421 45.5,156.5C 46.3257,153.515 47.659,150.849 49.5,148.5 Z"/></g>
<g><path style="opacity:1" fill="#fcfdfb" d="M 276.5,151.5 C 313.972,156.141 340.139,175.807 355,210.5C 360.226,225.407 361.892,240.74 360,256.5C 356.395,264.421 351.395,265.421 345,259.5C 348.911,224.843 336.744,197.676 308.5,178C 298.558,172.182 287.891,168.516 276.5,167C 269.875,161.754 269.875,156.587 276.5,151.5 Z"/></g>
<g><path style="opacity:0.875" fill="#d36a83" d="M 42.5,163.5 C 41.9408,166.943 40.6074,169.943 38.5,172.5C 39.0749,169.088 40.4082,166.088 42.5,163.5 Z"/></g>
<g><path style="opacity:0.376" fill="#c16294" d="M 474.5,177.5 C 476.438,181.982 477.771,186.649 478.5,191.5C 476.665,187.344 474.999,183.011 473.5,178.5C 473.624,177.893 473.957,177.56 474.5,177.5 Z"/></g>
<g><path style="opacity:1" fill="#fbfdfb" d="M 271.5,193.5 C 296.638,196.803 312.138,210.803 318,235.5C 318.667,240.833 318.667,246.167 318,251.5C 313.827,258.62 308.827,259.287 303,253.5C 304.916,229.111 294.082,214.277 270.5,209C 264.939,203.353 265.272,198.186 271.5,193.5 Z"/></g>
<g><path style="opacity:0.565" fill="#c368b3" d="M 31.5,193.5 C 32.0431,193.56 32.3764,193.893 32.5,194.5C 32.0863,196.919 31.0863,198.919 29.5,200.5C 30.0147,198.106 30.6814,195.772 31.5,193.5 Z"/></g>
<g><path style="opacity:0.8" fill="#bc647b" d="M 479.5,193.5 C 480.167,195.5 480.833,197.5 481.5,199.5C 479.784,198.426 478.784,196.759 478.5,194.5C 478.624,193.893 478.957,193.56 479.5,193.5 Z"/></g>
<g><path style="opacity:0.686" fill="#bd6391" d="M 482.5,207.5 C 483.657,210.273 484.324,213.273 484.5,216.5C 482.882,213.829 482.215,210.829 482.5,207.5 Z"/></g>
<g><path style="opacity:0.992" fill="#de5699" d="M 24.5,230.5 C 25.9302,232.455 25.5969,234.121 23.5,235.5C 24.038,233.883 24.3713,232.216 24.5,230.5 Z"/></g>
<g><path style="opacity:0.718" fill="#9786ac" d="M 482.5,304.5 C 482.435,307.428 481.768,310.095 480.5,312.5C 480.294,309.505 480.96,306.838 482.5,304.5 Z"/></g>
<g><path style="opacity:0.984" fill="#bc5596" d="M 33.5,325.5 C 35.5518,326.053 35.8852,327.053 34.5,328.5C 34.4431,327.391 34.1098,326.391 33.5,325.5 Z"/></g>
<g><path style="opacity:0.071" fill="#bc6e9f" d="M 477.5,323.5 C 477.737,324.791 477.404,325.791 476.5,326.5C 476.062,326.565 475.728,326.399 475.5,326C 476.191,324.933 476.691,323.766 477,322.5C 477.399,322.728 477.565,323.062 477.5,323.5 Z"/></g>
<g><path style="opacity:0.973" fill="#b87bbd" d="M 35.5,329.5 C 37.0739,331.102 37.7406,333.102 37.5,335.5C 36.2616,333.786 35.595,331.786 35.5,329.5 Z"/></g>
<g><path style="opacity:0.09" fill="#c3598c" d="M 43.5,351.5 C 46.0827,352.985 47.416,355.318 47.5,358.5C 45.9291,356.365 44.5957,354.032 43.5,351.5 Z"/></g>
<g><path style="opacity:0.565" fill="#d14c64" d="M 462.5,360.5 C 462.34,362.153 461.674,363.486 460.5,364.5C 460.365,362.028 461.032,360.694 462.5,360.5 Z"/></g>
<g><path style="opacity:0.098" fill="#d44c77" d="M 48.5,361.5 C 50.0481,361.821 50.7148,362.821 50.5,364.5C 49.5987,363.71 48.9321,362.71 48.5,361.5 Z"/></g>
<g><path style="opacity:0.176" fill="#b364d2" d="M 457.5,370.5 C 457.068,371.71 456.401,372.71 455.5,373.5C 455.285,371.821 455.952,370.821 457.5,370.5 Z"/></g>
<g><path style="opacity:0.937" fill="#898acc" d="M 53.5,370.5 C 55.7964,371.733 57.1298,373.733 57.5,376.5C 55.684,374.882 54.3507,372.882 53.5,370.5 Z"/></g>
<g><path style="opacity:0.443" fill="#9781db" d="M 59.5,379.5 C 61.3818,380.221 61.7152,381.221 60.5,382.5C 59.8902,381.609 59.5569,380.609 59.5,379.5 Z"/></g>
<g><path style="opacity:0.169" fill="#b4858b" d="M 450.5,381.5 C 449.567,384.37 447.9,386.704 445.5,388.5C 446.6,385.109 448.267,382.775 450.5,381.5 Z"/></g>
<g><path style="opacity:0.537" fill="#9f96ab" d="M 445.5,388.5 C 444.567,391.37 442.9,393.704 440.5,395.5C 441.433,392.63 443.1,390.296 445.5,388.5 Z"/></g>
<g><path style="opacity:0.118" fill="#83adb4" d="M 431.5,407.5 C 428.833,410.833 425.833,413.833 422.5,416.5C 424.5,412.5 427.5,409.5 431.5,407.5 Z"/></g>
<g><path style="opacity:0.969" fill="#c47c66" d="M 81.5,409.5 C 83.5441,410.031 85.2107,411.198 86.5,413C 86.2716,413.399 85.9382,413.565 85.5,413.5C 83.8333,412.5 82.5,411.167 81.5,409.5 Z"/></g>
<g><path style="opacity:0.298" fill="#be6d6c" d="M 94.5,422.5 C 97.8991,424.388 100.899,426.888 103.5,430C 103.272,430.399 102.938,430.565 102.5,430.5C 99.5,428.167 96.8333,425.5 94.5,422.5 Z"/></g>
<g><path style="opacity:0.533" fill="#d2788e" d="M 110.5,436.5 C 112.749,437.08 114.415,438.413 115.5,440.5C 113.251,439.92 111.585,438.587 110.5,436.5 Z"/></g>
<g><path style="opacity:0.02" fill="#b8775a" d="M 131.5,451.5 C 128.669,450.921 126.336,449.588 124.5,447.5C 124.435,447.062 124.601,446.728 125,446.5C 127.352,448.03 129.519,449.697 131.5,451.5 Z"/></g>
<g><path style="opacity:0.996" fill="#c05f78" d="M 133.5,453.5 C 133.897,452.475 134.563,452.308 135.5,453C 137.747,454.277 139.747,455.777 141.5,457.5C 138.55,456.692 135.883,455.358 133.5,453.5 Z"/></g>
<g><path style="opacity:0.098" fill="#e1347f" d="M 366.5,459.5 C 365.486,460.674 364.153,461.34 362.5,461.5C 363.315,460.163 364.482,459.163 366,458.5C 366.399,458.728 366.565,459.062 366.5,459.5 Z"/></g>
<g><path style="opacity:0.149" fill="#d54281" d="M 361.5,462.5 C 358.167,464.167 354.833,465.833 351.5,467.5C 353.851,464.804 356.851,462.804 360.5,461.5C 361.107,461.624 361.44,461.957 361.5,462.5 Z"/></g>
<g><path style="opacity:0.667" fill="#c05f82" d="M 347.5,468.5 C 344.63,470.794 341.297,472.128 337.5,472.5C 340.53,470.597 343.863,469.263 347.5,468.5 Z"/></g>
<g><path style="opacity:0.051" fill="#cc415c" d="M 335.5,473.5 C 334.329,474.345 332.995,475.011 331.5,475.5C 332.105,473.974 333.271,472.974 335,472.5C 335.399,472.728 335.565,473.062 335.5,473.5 Z"/></g>
<g><path style="opacity:0.369" fill="#d16c92" d="M 180.5,475.5 C 181.962,474.529 183.295,474.862 184.5,476.5C 183.041,476.567 181.708,476.234 180.5,475.5 Z"/></g>
<g><path style="opacity:0.078" fill="#cb42da" d="M 330.5,475.5 C 329.833,475.833 329.167,476.167 328.5,476.5C 328.711,474.576 329.377,474.243 330.5,475.5 Z"/></g>
</svg>
